<svg xmlns="http://www.w3.org/2000/svg" xmlns:xlink="http://www.w3.org/1999/xlink" xmlns:lucid="lucid" width="1449.99" height="1023.67"><g transform="translate(-220 -79.99999999999999)" lucid:page-tab-id="7ezayB~FQlW7"><path d="M0 0h1760v1360H0z" fill="#ffdf71"/><path d="M671.76 102c0-1.1.9-2 2-2h532.78c1.1 0 2 .9 2 2v38.15c0 1.1-.9 2-2 2H673.76c-1.1 0-2-.9-2-2z" stroke="#000" stroke-opacity="0" stroke-width="2" fill="#fff" fill-opacity="0"/><use xlink:href="#a" transform="matrix(1,0,0,1,675.7595767063939,103.99999999999999) translate(165.58499999999998 21.455)"/><use xlink:href="#b" transform="matrix(1,0,0,1,675.7595767063939,103.99999999999999) translate(267.235 21.455)"/><path d="M816.33 140.77h253.8M816.36 140.77h-1.03M1070.1 140.77h1.04" stroke="#333" stroke-width="2" fill="none"/><path d="M671.3 143.07c0-1.1.9-2 2-2h533.4c1.1 0 2 .9 2 2v16c0 1.1-.9 2-2 2H673.3c-1.1 0-2-.9-2-2z" stroke="#000" stroke-opacity="0" stroke-width="2" fill="#fff" fill-opacity="0"/><use xlink:href="#c" transform="matrix(1,0,0,1,675.3075907693171,145.0733333332169) translate(166.56 17.080000000000002)"/><use xlink:href="#d" transform="matrix(1,0,0,1,675.3075907693171,145.0733333332169) translate(246.46 17.080000000000002)"/><use xlink:href="#e" transform="matrix(1,0,0,1,675.3075907693171,145.0733333332169) translate(261.11 17.080000000000002)"/><use xlink:href="#f" transform="matrix(1,0,0,1,675.3075907693171,145.0733333332169) translate(300.06 17.080000000000002)"/><use xlink:href="#g" transform="matrix(1,0,0,1,675.3075907693171,145.0733333332169) translate(330.06 17.080000000000002)"/><path d="M368.77 322c0-1.1.9-2 2-2H858c1.1 0 2 .9 2 2v76c0 1.1-.9 2-2 2H370.77c-1.1 0-2-.9-2-2z" fill="#b1d6f0"/><use xlink:href="#h" transform="matrix(1,0,0,1,373.7695257150375,325) translate(172.6 38.4625)"/><use xlink:href="#i" transform="matrix(1,0,0,1,373.7695257150375,325) translate(259.5 38.4625)"/><path d="M320 549.58c0 6.62-17.9 12-40 12s-40-5.38-40-12v-96c0-6.63 17.9-12 40-12s40 5.37 40 12z" fill="#b1d6f0"/><path d="M320 453.58c0 6.62-17.9 12-40 12s-40-5.38-40-12" fill="none"/><use xlink:href="#j" transform="matrix(1,0,0,1,245.00000000001853,470.57644111824266) translate(11.524999999999999 46.65)"/><path d="M280 440.58V362c0-1.1.9-2 2-2h68.27" stroke="#333" stroke-width="2" fill="none"/><path d="M281 441.64l-1-.06-1 .03v-1.05h2z" fill="#333"/><path d="M365.53 360l-14.26 4.64v-9.28z" stroke="#333" stroke-width="2" fill="#333"/><path d="M614.38 401v70.66c0 1.1.9 2 2 2h145.55c1.1 0 2 .9 2 2v53.16" stroke="#333" stroke-width="2" fill="none"/><path d="M615.38 401.03h-2V400h2z" fill="#333"/><path d="M763.93 544.1l-4.63-14.28h9.27z" stroke="#333" stroke-width="2" fill="#333"/><path d="M864.35 579.16h37c1.1 0 2 .9 2 2v66.75c0 1.1-.9 2-2 2H765.93c-1.1 0-2 .9-2 2v18.4" stroke="#333" stroke-width="2" fill="none"/><path d="M864.37 580.16h-1.02v-2h1.02z" fill="#333"/><path d="M763.93 685.58l-4.63-14.27h9.27z" stroke="#333" stroke-width="2" fill="#333"/><path d="M500.55 722.05l-.82 1.98-1.98.83H428.5v-2h68.85l.85-.36.35-.84v-65.5h2zm145.47-141.9H501.75l-.85.36-.35.86v53.2h-2v-53.6l.82-1.98 1.98-.82h144.67zM661.3 579.16L647 583.8v-9.28z" fill="#333"/><path d="M664.52 579.16l-18.5 6v-12zm-16.5 3.26l10.03-3.26-10.03-3.26zM427.5 728.5l-14.28-4.64 14.27-4.64z" fill="#333"/><path d="M428.5 729.87l-18.5-6 18.5-6.03zm-12.04-6l10.03 3.24v-6.5z" fill="#333"/><use xlink:href="#k" transform="matrix(1,0,0,1,468.0998664279501,634.5563298627503) translate(0.004999999999999005 14.4)"/><use xlink:href="#l" transform="matrix(1,0,0,1,468.0998664279501,634.5563298627503) translate(37.955 14.4)"/><path d="M603.7 1024.47l-.83 1.98-1.98.82H428.5v-2h172l.84-.35.35-.85V952h2zM646 863.15H604.9l-.86.35-.35.85v66.05h-2v-66.45l.8-1.98 2-.82H646zM661.3 862.15L647 866.78v-9.27z" fill="#333"/><path d="M664.52 862.15l-18.5 6v-12zm-16.5 3.26l10.03-3.25-10.03-3.26zM427.5 1030.9l-14.28-4.63 14.27-4.63z" fill="#333"/><path d="M428.5 1032.28l-18.5-6 18.5-6.02zm-12.04-6l10.03 3.25V1023z" fill="#333"/><use xlink:href="#m" transform="matrix(1,0,0,1,571.242307692417,930.3954530262013) translate(0 14.4)"/><use xlink:href="#n" transform="matrix(1,0,0,1,571.242307692417,930.3954530262013) translate(37.95 14.4)"/><path d="M839.24 1001.5h-2v-33.7h2zm-73.95-45.86l.83.35h25.16v2h-25.56l-2-.83-.8-1.98v-60.22h2v59.8z" fill="#333"/><path d="M764.93 895h-2V894h2zM838.24 1016.76l-4.63-14.26h9.28z" fill="#333"/><path d="M838.24 1020l-6-18.5h12zm-3.26-16.5l3.26 10.03 3.26-10.03z" fill="#333"/><use xlink:href="#m" transform="matrix(1,0,0,1,791.289570710078,946.1923511931116) translate(0 14.4)"/><use xlink:href="#n" transform="matrix(1,0,0,1,791.289570710078,946.1923511931116) translate(37.95 14.4)"/><path d="M700 1022c0-1.1.9-2 2-2h272.48c1.1 0 2 .9 2 2v59.67c0 1.1-.9 2-2 2H702c-1.1 0-2-.9-2-2z" fill="#b1d6f0"/><use xlink:href="#o" transform="matrix(1,0,0,1,705,1025) translate(67.075 31.275)"/><use xlink:href="#p" transform="matrix(1,0,0,1,705,1025) translate(131.925 31.275)"/><path d="M240 679.74c0-1.1.9-2 2-2h124.95c1.1 0 2 .9 2 2v32.15c0 1.1-.9 2-2 2H242c-1.1 0-2-.9-2-2z" fill="#b1d6f0"/><use xlink:href="#q" transform="matrix(1,0,0,1,245,682.7441022456678) translate(12.549999999999997 17.775)"/><use xlink:href="#r" transform="matrix(1,0,0,1,245,682.7441022456678) translate(56.55 17.775)"/><path d="M281.04 707.78c0-1.1.9-2 2-2H408c1.1 0 2 .9 2 2v32.15c0 1.1-.9 2-2 2H283.03c-1.1 0-2-.9-2-2z" fill="#b1d6f0"/><use xlink:href="#q" transform="matrix(1,0,0,1,286.0355901015691,710.7825239649289) translate(12.549999999999997 17.775)"/><use xlink:href="#s" transform="matrix(1,0,0,1,286.0355901015691,710.7825239649289) translate(56.55 17.775)"/><path d="M240 832.06c0-1.1.9-2 2-2h140.8c1.1 0 2 .9 2 2v34.5c0 1.1-.9 2-2 2H242c-1.1 0-2-.9-2-2z" fill="#b1d6f0"/><use xlink:href="#q" transform="matrix(1,0,0,1,245.00000000000233,835.0568722350973) translate(20.549999999999997 18.025)"/><use xlink:href="#s" transform="matrix(1,0,0,1,245.00000000000233,835.0568722350973) translate(64.55 18.025)"/><path d="M265.2 857.73c0-1.1.88-2 2-2H408c1.1 0 2 .9 2 2v34.5c0 1.1-.9 2-2 2H267.2c-1.12 0-2-.9-2-2z" fill="#b1d6f0"/><use xlink:href="#q" transform="matrix(1,0,0,1,270.18524934179896,860.7302844675792) translate(20.549999999999997 18.025)"/><use xlink:href="#s" transform="matrix(1,0,0,1,270.18524934179896,860.7302844675792) translate(64.55 18.025)"/><path d="M240 984.37c0-1.1.9-2 2-2h142.65c1.1 0 2 .9 2 2v36.56c0 1.1-.9 2-2 2H242c-1.1 0-2-.9-2-2z" fill="#b1d6f0"/><use xlink:href="#q" transform="matrix(1,0,0,1,245.00000000001853,987.3696422244103) translate(21.549999999999997 18.275)"/><use xlink:href="#s" transform="matrix(1,0,0,1,245.00000000001853,987.3696422244103) translate(65.55 18.275)"/><path d="M263.33 1008c0-1.12.9-2 2-2H408c1.1 0 2 .88 2 2v36.55c0 1.1-.9 2-2 2H265.32c-1.1 0-2-.9-2-2z" fill="#b1d6f0"/><use xlink:href="#q" transform="matrix(1,0,0,1,268.33432390341505,1010.9887867701874) translate(21.549999999999997 18.275)"/><use xlink:href="#s" transform="matrix(1,0,0,1,268.33432390341505,1010.9887867701874) translate(65.55 18.275)"/><path d="M864.35 720.65h37c1.1 0 2 .9 2 2v66.75c0 1.1-.9 2-2 2H765.93c-1.1 0-2 .9-2 2v18.4" stroke="#333" stroke-width="2" fill="none"/><path d="M864.37 721.65h-1.02v-2h1.02z" fill="#333"/><path d="M763.93 827.08l-4.63-14.27h9.27z" stroke="#333" stroke-width="2" fill="#333"/><path d="M664.52 549.32c0-1.1.9-2 2-2h194.83c1.1 0 2 .9 2 2V609c0 1.1-.9 2-2 2H666.52c-1.1 0-2-.9-2-2z" fill="#b1d6f0"/><path d="M684.4 547.32V611m159.06-63.68V611" fill="none"/><use xlink:href="#t" transform="matrix(1,0,0,1,694.3761950299165,552.3211678832) translate(5.049999999999997 30.6)"/><use xlink:href="#u" transform="matrix(1,0,0,1,694.3761950299165,552.3211678832) translate(75 30.6)"/><use xlink:href="#v" transform="matrix(1,0,0,1,694.3761950299165,552.3211678832) translate(122.95 30.6)"/><path d="M664.52 690.82c0-1.1.9-2 2-2h194.83c1.1 0 2 .9 2 2v59.67c0 1.1-.9 2-2 2H666.52c-1.1 0-2-.9-2-2z" fill="#b1d6f0"/><path d="M684.4 688.82v63.67m159.06-63.68v63.67" fill="none"/><use xlink:href="#t" transform="matrix(1,0,0,1,694.3761950299165,693.8168702741722) translate(5.049999999999997 30.6)"/><use xlink:href="#u" transform="matrix(1,0,0,1,694.3761950299165,693.8168702741722) translate(75 30.6)"/><use xlink:href="#w" transform="matrix(1,0,0,1,694.3761950299165,693.8168702741722) translate(122.95 30.6)"/><path d="M664.52 832.3c0-1.1.9-2 2-2h194.83c1.1 0 2 .9 2 2V892c0 1.1-.9 2-2 2H666.52c-1.1 0-2-.9-2-2z" fill="#b1d6f0"/><path d="M684.4 830.3V894m159.06-63.67V894" fill="none"/><use xlink:href="#t" transform="matrix(1,0,0,1,694.3761950299165,835.3125726651444) translate(4.575000000000003 30.6)"/><use xlink:href="#u" transform="matrix(1,0,0,1,694.3761950299165,835.3125726651444) translate(74.525 30.6)"/><use xlink:href="#x" transform="matrix(1,0,0,1,694.3761950299165,835.3125726651444) translate(122.47500000000001 30.6)"/><path d="M564.27 873.18l-.82 1.98-1.98.83H428.5v-2h132.57l.85-.37.35-.84v-70.43h2zm81.75-151.53h-80.55l-.85.35-.35.85v57.92h-2v-58.32l.82-1.98 1.97-.82h80.95zM661.3 720.65L647 725.3V716z" fill="#333"/><path d="M664.52 720.65l-18.5 6v-12zm-16.5 3.26l10.03-3.25-10.03-3.26zM427.5 879.62L413.2 875l14.27-4.65z" fill="#333"/><path d="M428.5 881l-18.5-6 18.5-6.03zm-12.04-6l10.03 3.24v-6.5z" fill="#333"/><use xlink:href="#m" transform="matrix(1,0,0,1,531.8192307693389,780.770431444319) translate(0 14.4)"/><use xlink:href="#n" transform="matrix(1,0,0,1,531.8192307693389,780.770431444319) translate(37.95 14.4)"/><path d="M1381 667.06l.35.85.85.36h79.3v2h-79.7l-1.98-.82-.82-1.98v-29.94h2zm-.82-75.4l.82 1.98v22.28h-2v-21.9l-.35-.83-.85-.36h-140.48v-2h140.88zM1236.32 596.47l-14.26-4.63 14.26-4.64z" fill="#333"/><path d="M1237.32 597.85l-18.5-6 18.5-6.03zm-12.03-6l10.02 3.24v-6.52zM1476.76 669.26l-14.26 4.64v-9.27z" fill="#333"/><path d="M1480 669.26l-18.5 6.02v-12.03zm-16.5 3.26l10.03-3.26-10.03-3.26z" fill="#333"/><use xlink:href="#y" transform="matrix(1,0,0,1,1348.55,615.9234639913575) translate(0.004999999999999005 14.4)"/><use xlink:href="#z" transform="matrix(1,0,0,1,1348.55,615.9234639913575) translate(37.955 14.4)"/><path d="M1341 973.9l.35.85.85.35h119.3v2h-119.7l-1.98-.82-.82-1.98v-87.9h2zm-103.68-98.07v-2h71.23v2zM1236.32 879.46l-14.26-4.63 14.26-4.64z" fill="#333"/><path d="M1237.32 880.84l-18.5-6 18.5-6.02zm-12.03-6l10.02 3.25v-6.53zM1476.76 976.1l-14.26 4.63v-9.27z" fill="#333"/><path d="M1480 976.1l-18.5 6v-12zm-16.5 3.26l10.03-3.26-10.03-3.26z" fill="#333"/><use xlink:href="#A" transform="matrix(1,0,0,1,1308.55,864.8126025512912) translate(0 14.4)"/><use xlink:href="#B" transform="matrix(1,0,0,1,1308.55,864.8126025512912) translate(37.95 14.4)"/><path d="M1480 653.2c0-1.1.9-2 2-2h124.95c1.1 0 2 .9 2 2v32.14c0 1.1-.9 2-2 2H1482c-1.1 0-2-.9-2-2z" fill="#b1d6f0"/><use xlink:href="#C" transform="matrix(1,0,0,1,1485,656.1909294399683) translate(12.549999999999997 17.775)"/><use xlink:href="#D" transform="matrix(1,0,0,1,1485,656.1909294399683) translate(56.55 17.775)"/><path d="M1521.04 681.23c0-1.1.9-2 2-2H1648c1.1 0 2 .9 2 2v32.14c0 1.1-.9 2-2 2h-124.96c-1.1 0-2-.9-2-2z" fill="#b1d6f0"/><use xlink:href="#C" transform="matrix(1,0,0,1,1526.0355901015691,684.2293511592294) translate(12.549999999999997 17.775)"/><use xlink:href="#E" transform="matrix(1,0,0,1,1526.0355901015691,684.2293511592294) translate(56.55 17.775)"/><path d="M1480 805.5c0-1.1.9-2 2-2h140.8c1.1 0 2 .9 2 2V840c0 1.12-.9 2-2 2H1482c-1.1 0-2-.88-2-2z" fill="#b1d6f0"/><use xlink:href="#C" transform="matrix(1,0,0,1,1485.0000000000023,808.5036994293979) translate(20.549999999999997 18.025)"/><use xlink:href="#E" transform="matrix(1,0,0,1,1485.0000000000023,808.5036994293979) translate(64.55 18.025)"/><path d="M1505.2 831.18c0-1.1.88-2 2-2H1648c1.1 0 2 .9 2 2v34.5c0 1.1-.9 2-2 2h-140.8c-1.12 0-2-.9-2-2z" fill="#b1d6f0"/><use xlink:href="#C" transform="matrix(1,0,0,1,1510.1852493417987,834.1771116618798) translate(20.549999999999997 18.025)"/><use xlink:href="#E" transform="matrix(1,0,0,1,1510.1852493417987,834.1771116618798) translate(64.55 18.025)"/><path d="M1480 957.82c0-1.1.9-2 2-2h142.65c1.1 0 2 .9 2 2v36.56c0 1.1-.9 2-2 2H1482c-1.1 0-2-.9-2-2z" fill="#b1d6f0"/><use xlink:href="#C" transform="matrix(1,0,0,1,1485.0000000000186,960.8164694187104) translate(21.549999999999997 18.275)"/><use xlink:href="#E" transform="matrix(1,0,0,1,1485.0000000000186,960.8164694187104) translate(65.55 18.275)"/><path d="M1503.33 981.44c0-1.1.9-2 2-2H1648c1.1 0 2 .9 2 2V1018c0 1.1-.9 2-2 2h-142.67c-1.1 0-2-.9-2-2z" fill="#b1d6f0"/><g><use xlink:href="#C" transform="matrix(1,0,0,1,1508.3343239034152,984.4356139644875) translate(21.549999999999997 18.275)"/><use xlink:href="#E" transform="matrix(1,0,0,1,1508.3343239034152,984.4356139644875) translate(65.55 18.275)"/></g><path d="M1020 562c0-1.1.9-2 2-2h194.82c1.1 0 2 .9 2 2v59.67c0 1.1-.9 2-2 2H1022c-1.1 0-2-.9-2-2z" fill="#b1d6f0"/><path d="M1039.88 560v63.67M1198.94 560v63.67" fill="none"/><g><use xlink:href="#F" transform="matrix(1,0,0,1,1049.8527642097752,565) translate(1.0250000000000057 30.6)"/><use xlink:href="#u" transform="matrix(1,0,0,1,1049.8527642097752,565) translate(79.025 30.6)"/><use xlink:href="#v" transform="matrix(1,0,0,1,1049.8527642097752,565) translate(126.97500000000001 30.6)"/></g><path d="M1020 703.5c0-1.1.9-2 2-2h194.82c1.1 0 2 .9 2 2v59.67c0 1.1-.9 2-2 2H1022c-1.1 0-2-.9-2-2z" fill="#b1d6f0"/><path d="M1039.88 701.5v63.67m159.06-63.67v63.67" fill="none"/><g><use xlink:href="#F" transform="matrix(1,0,0,1,1049.8527642097752,706.4957023909722) translate(1.0250000000000057 30.6)"/><use xlink:href="#u" transform="matrix(1,0,0,1,1049.8527642097752,706.4957023909722) translate(79.025 30.6)"/><use xlink:href="#w" transform="matrix(1,0,0,1,1049.8527642097752,706.4957023909722) translate(126.97500000000001 30.6)"/></g><path d="M1020 845c0-1.1.9-2 2-2h194.82c1.1 0 2 .9 2 2v59.66c0 1.1-.9 2-2 2H1022c-1.1 0-2-.9-2-2z" fill="#b1d6f0"/><path d="M1039.88 843v63.66M1198.94 843v63.66" fill="none"/><g><use xlink:href="#F" transform="matrix(1,0,0,1,1049.8527642097752,847.9914047819444) translate(0.5499999999999972 30.6)"/><use xlink:href="#u" transform="matrix(1,0,0,1,1049.8527642097752,847.9914047819444) translate(78.55 30.6)"/><use xlink:href="#x" transform="matrix(1,0,0,1,1049.8527642097752,847.9914047819444) translate(126.5 30.6)"/></g><path d="M1351 820.56l.35.85.85.36h109.3v2h-109.7l-1.98-.82-.82-1.98V760.6h2zm-.82-87.4l.82 1.97V739h-2v-3.47l-.35-.85-.85-.35h-110.48v-2h110.88zM1236.32 737.97l-14.26-4.64 14.26-4.63z" fill="#333"/><path d="M1237.32 739.34l-18.5-6 18.5-6.02zm-12.03-6l10.02 3.25v-6.53zM1476.76 822.76l-14.26 4.63v-9.28z" fill="#333"/><path d="M1480 822.76l-18.5 6v-12zm-16.5 3.26l10.03-3.26-10.03-3.26z" fill="#333"/><g><use xlink:href="#A" transform="matrix(1,0,0,1,1318.55,738.9904804733557) translate(0 14.4)"/><use xlink:href="#B" transform="matrix(1,0,0,1,1318.55,738.9904804733557) translate(37.95 14.4)"/></g><path d="M977.48 1051.84h139.93c1.12 0 2-.9 2-2V925.17" stroke="#333" stroke-width="2" fill="none"/><path d="M977.5 1052.84h-1.02v-2h1.03z" fill="#333"/><path d="M1119.4 909.9l4.65 14.27h-9.27z" stroke="#333" stroke-width="2" fill="#333"/><path d="M1119.4 559V362c0-1.1-.88-2-2-2H878.5" stroke="#333" stroke-width="2" fill="none"/><path d="M1120.4 560h-2v-1.03h2z" fill="#333"/><path d="M863.24 360l14.26-4.64v9.28z" stroke="#333" stroke-width="2" fill="#333"/><path d="M1119.4 842v-58.33" stroke="#333" stroke-width="2" fill="none"/><path d="M1120.4 843h-2v-1.03h2z" fill="#333"/><path d="M1119.4 768.4l4.65 14.27h-9.27z" stroke="#333" stroke-width="2" fill="#333"/><path d="M1119.4 700.5v-58.33" stroke="#333" stroke-width="2" fill="none"/><path d="M1120.4 701.5h-2v-1.03h2z" fill="#333"/><path d="M1119.4 626.9l4.65 14.27h-9.27z" stroke="#333" stroke-width="2" fill="#333"/><defs><path d="M24 0v-248h52v208h133V0H24" id="G"/><path d="M25-224v-37h50v37H25zM25 0v-190h50V0H25" id="H"/><path d="M195-6C206 82 75 100 31 46c-4-6-6-13-8-21l49-6c3 16 16 24 34 25 40 0 42-37 40-79-11 22-30 35-61 35-53 0-70-43-70-97 0-56 18-96 73-97 30 0 46 14 59 34l2-30h47zm-90-29c32 0 41-27 41-63 0-35-9-62-40-62-32 0-39 29-40 63 0 36 9 62 39 62" id="I"/><path d="M114-157C55-157 80-60 75 0H25v-261h50l-1 109c12-26 28-41 61-42 86-1 58 113 63 194h-50c-7-57 23-157-34-157" id="J"/><path d="M115-3C79 11 28 4 28-45v-112H4v-33h27l15-45h31v45h36v33H77v99c-1 23 16 31 38 25v30" id="K"/><path d="M110-194c64 0 96 36 96 99 0 64-35 99-97 99-61 0-95-36-95-99 0-62 34-99 96-99zm-1 164c35 0 45-28 45-65 0-40-10-65-43-65-34 0-45 26-45 65 0 36 10 65 43 65" id="L"/><path d="M85 4C-2 5 27-109 22-190h50c7 57-23 150 33 157 60-5 35-97 40-157h50l1 190h-47c-2-12 1-28-3-38-12 25-28 42-61 42" id="M"/><path d="M137-138c1-29-70-34-71-4 15 46 118 7 119 86 1 83-164 76-172 9l43-7c4 19 20 25 44 25 33 8 57-30 24-41C81-84 22-81 20-136c-2-80 154-74 161-7" id="N"/><path d="M185-48c-13 30-37 53-82 52C43 2 14-33 14-96s30-98 90-98c62 0 83 45 84 108H66c0 31 8 55 39 56 18 0 30-7 34-22zm-45-69c5-46-57-63-70-21-2 6-4 13-4 21h74" id="O"/><g id="a"><use transform="matrix(0.05,0,0,0.05,0,0)" xlink:href="#G"/><use transform="matrix(0.05,0,0,0.05,10.950000000000001,0)" xlink:href="#H"/><use transform="matrix(0.05,0,0,0.05,15.950000000000001,0)" xlink:href="#I"/><use transform="matrix(0.05,0,0,0.05,26.900000000000002,0)" xlink:href="#J"/><use transform="matrix(0.05,0,0,0.05,37.85,0)" xlink:href="#K"/><use transform="matrix(0.05,0,0,0.05,43.800000000000004,0)" xlink:href="#J"/><use transform="matrix(0.05,0,0,0.05,54.75,0)" xlink:href="#L"/><use transform="matrix(0.05,0,0,0.05,65.7,0)" xlink:href="#M"/><use transform="matrix(0.05,0,0,0.05,76.65,0)" xlink:href="#N"/><use transform="matrix(0.05,0,0,0.05,86.65,0)" xlink:href="#O"/></g><path d="M133-34C117-15 103 5 69 4 32 3 11-16 11-54c-1-60 55-63 116-61 1-26-3-47-28-47-18 1-26 9-28 27l-52-2c7-38 36-58 82-57s74 22 75 68l1 82c-1 14 12 18 25 15v27c-30 8-71 5-69-32zm-48 3c29 0 43-24 42-57-32 0-66-3-65 30 0 17 8 27 23 27" id="P"/><path d="M135-150c-39-12-60 13-60 57V0H25l-1-190h47c2 13-1 29 3 40 6-28 27-53 61-41v41" id="Q"/><path d="M190-63c-7 42-38 67-86 67-59 0-84-38-90-98-12-110 154-137 174-36l-49 2c-2-19-15-32-35-32-30 0-35 28-38 64-6 74 65 87 74 30" id="R"/><g id="b"><use transform="matrix(0.05,0,0,0.05,0,0)" xlink:href="#P"/><use transform="matrix(0.05,0,0,0.05,10,0)" xlink:href="#Q"/><use transform="matrix(0.05,0,0,0.05,17,0)" xlink:href="#R"/><use transform="matrix(0.05,0,0,0.05,27,0)" xlink:href="#J"/><use transform="matrix(0.05,0,0,0.05,37.95,0)" xlink:href="#H"/><use transform="matrix(0.05,0,0,0.05,42.95,0)" xlink:href="#K"/><use transform="matrix(0.05,0,0,0.05,48.900000000000006,0)" xlink:href="#O"/><use transform="matrix(0.05,0,0,0.05,58.900000000000006,0)" xlink:href="#R"/><use transform="matrix(0.05,0,0,0.05,68.9,0)" xlink:href="#K"/><use transform="matrix(0.05,0,0,0.05,74.85000000000001,0)" xlink:href="#M"/><use transform="matrix(0.05,0,0,0.05,85.80000000000001,0)" xlink:href="#Q"/><use transform="matrix(0.05,0,0,0.05,92.80000000000001,0)" xlink:href="#O"/></g><path d="M127-220V0H93v-220H8v-28h204v28h-85" id="S"/><path d="M106-169C34-169 62-67 57 0H25v-261h32l-1 103c12-21 28-36 61-36 89 0 53 116 60 194h-32v-121c2-32-8-49-39-48" id="T"/><path d="M100-194c62-1 85 37 85 99 1 63-27 99-86 99S16-35 15-95c0-66 28-99 85-99zM99-20c44 1 53-31 53-75 0-43-8-75-51-75s-53 32-53 75 10 74 51 75" id="U"/><path d="M210-169c-67 3-38 105-44 169h-31v-121c0-29-5-50-35-48C34-165 62-65 56 0H25l-1-190h30c1 10-1 24 2 32 10-44 99-50 107 0 11-21 27-35 58-36 85-2 47 119 55 194h-31v-121c0-29-5-49-35-48" id="V"/><path d="M141-36C126-15 110 5 73 4 37 3 15-17 15-53c-1-64 63-63 125-63 3-35-9-54-41-54-24 1-41 7-42 31l-33-3c5-37 33-52 76-52 45 0 72 20 72 64v82c-1 20 7 32 28 27v20c-31 9-61-2-59-35zM48-53c0 20 12 33 32 33 41-3 63-29 60-74-43 2-92-5-92 41" id="W"/><path d="M135-143c-3-34-86-38-87 0 15 53 115 12 119 90S17 21 10-45l28-5c4 36 97 45 98 0-10-56-113-15-118-90-4-57 82-63 122-42 12 7 21 19 24 35" id="X"/><g id="c"><use transform="matrix(0.05,0,0,0.05,0,0)" xlink:href="#S"/><use transform="matrix(0.05,0,0,0.05,10.950000000000001,0)" xlink:href="#T"/><use transform="matrix(0.05,0,0,0.05,20.950000000000003,0)" xlink:href="#U"/><use transform="matrix(0.05,0,0,0.05,30.950000000000003,0)" xlink:href="#V"/><use transform="matrix(0.05,0,0,0.05,45.900000000000006,0)" xlink:href="#W"/><use transform="matrix(0.05,0,0,0.05,55.900000000000006,0)" xlink:href="#X"/></g><path d="M32 76v-337h29V76H32" id="Y"/><use transform="matrix(0.05,0,0,0.05,0,0)" xlink:href="#Y" id="d"/><path d="M240 0l2-218c-23 76-54 145-80 218h-23L58-218 59 0H30v-248h44l77 211c21-75 51-140 76-211h43V0h-30" id="Z"/><path d="M179-190L93 31C79 59 56 82 12 73V49c39 6 53-20 64-50L1-190h34L92-34l54-156h33" id="aa"/><g id="e"><use transform="matrix(0.05,0,0,0.05,0,0)" xlink:href="#Z"/><use transform="matrix(0.05,0,0,0.05,14.950000000000001,0)" xlink:href="#W"/><use transform="matrix(0.05,0,0,0.05,24.950000000000003,0)" xlink:href="#aa"/></g><path d="M27 0v-27h64v-190l-56 39v-29l58-41h29v221h61V0H27" id="ab"/><path d="M54-142c48-35 137-8 131 61C196 18 31 33 14-55l32-4c7 23 22 37 52 37 35-1 51-22 54-58 4-55-73-65-99-34H22l8-134h141v27H59" id="ac"/><path d="M68-38c1 34 0 65-14 84H32c9-13 17-26 17-46H33v-38h35" id="ad"/><g id="f"><use transform="matrix(0.05,0,0,0.05,0,0)" xlink:href="#ab"/><use transform="matrix(0.05,0,0,0.05,10,0)" xlink:href="#ac"/><use transform="matrix(0.05,0,0,0.05,20,0)" xlink:href="#ad"/></g><path d="M101-251c82-7 93 87 43 132L82-64C71-53 59-42 53-27h129V0H18c2-99 128-94 128-182 0-28-16-43-45-43s-46 15-49 41l-32-3c6-41 34-60 81-64" id="ae"/><path d="M101-251c68 0 85 55 85 127S166 4 100 4C33 4 14-52 14-124c0-73 17-127 87-127zm-1 229c47 0 54-49 54-102s-4-102-53-102c-51 0-55 48-55 102 0 53 5 102 54 102" id="af"/><g id="g"><use transform="matrix(0.05,0,0,0.05,0,0)" xlink:href="#ae"/><use transform="matrix(0.05,0,0,0.05,10,0)" xlink:href="#af"/><use transform="matrix(0.05,0,0,0.05,20,0)" xlink:href="#ae"/><use transform="matrix(0.05,0,0,0.05,30,0)" xlink:href="#af"/></g><path d="M24 0v-261h32V0H24" id="ag"/><path d="M24-231v-30h32v30H24zM24 0v-190h32V0H24" id="ah"/><path d="M177-190C167-65 218 103 67 71c-23-6-38-20-44-43l32-5c15 47 100 32 89-28v-30C133-14 115 1 83 1 29 1 15-40 15-95c0-56 16-97 71-98 29-1 48 16 59 35 1-10 0-23 2-32h30zM94-22c36 0 50-32 50-73 0-42-14-75-50-75-39 0-46 34-46 75s6 73 46 73" id="ai"/><path d="M59-47c-2 24 18 29 38 22v24C64 9 27 4 27-40v-127H5v-23h24l9-43h21v43h35v23H59v120" id="aj"/><path d="M84 4C-5 8 30-112 23-190h32v120c0 31 7 50 39 49 72-2 45-101 50-169h31l1 190h-30c-1-10 1-25-2-33-11 22-28 36-60 37" id="ak"/><path d="M100-194c63 0 86 42 84 106H49c0 40 14 67 53 68 26 1 43-12 49-29l28 8c-11 28-37 45-77 45C44 4 14-33 15-96c1-61 26-98 85-98zm52 81c6-60-76-77-97-28-3 7-6 17-6 28h103" id="al"/><g id="h"><use transform="matrix(0.05,0,0,0.05,0,0)" xlink:href="#ag"/><use transform="matrix(0.05,0,0,0.05,3.95,0)" xlink:href="#ah"/><use transform="matrix(0.05,0,0,0.05,7.9,0)" xlink:href="#ai"/><use transform="matrix(0.05,0,0,0.05,17.9,0)" xlink:href="#T"/><use transform="matrix(0.05,0,0,0.05,27.899999999999995,0)" xlink:href="#aj"/><use transform="matrix(0.05,0,0,0.05,32.9,0)" xlink:href="#T"/><use transform="matrix(0.05,0,0,0.05,42.9,0)" xlink:href="#U"/><use transform="matrix(0.05,0,0,0.05,52.900000000000006,0)" xlink:href="#ak"/><use transform="matrix(0.05,0,0,0.05,62.900000000000006,0)" xlink:href="#X"/><use transform="matrix(0.05,0,0,0.05,71.9,0)" xlink:href="#al"/></g><path d="M114-163C36-179 61-72 57 0H25l-1-190h30c1 12-1 29 2 39 6-27 23-49 58-41v29" id="am"/><path d="M108 0H70L1-190h34L89-25l56-165h34" id="an"/><g id="i"><use transform="matrix(0.05,0,0,0.05,0,0)" xlink:href="#X"/><use transform="matrix(0.05,0,0,0.05,9,0)" xlink:href="#al"/><use transform="matrix(0.05,0,0,0.05,19,0)" xlink:href="#am"/><use transform="matrix(0.05,0,0,0.05,24.95,0)" xlink:href="#an"/><use transform="matrix(0.05,0,0,0.05,33.95,0)" xlink:href="#al"/><use transform="matrix(0.05,0,0,0.05,43.95,0)" xlink:href="#am"/></g><path d="M96-169c-40 0-48 33-48 73s9 75 48 75c24 0 41-14 43-38l32 2c-6 37-31 61-74 61-59 0-76-41-82-99-10-93 101-131 147-64 4 7 5 14 7 22l-32 3c-4-21-16-35-41-35" id="ao"/><path d="M117-194c89-4 53 116 60 194h-32v-121c0-31-8-49-39-48C34-167 62-67 57 0H25l-1-190h30c1 10-1 24 2 32 11-22 29-35 61-36" id="ap"/><path d="M101-234c-31-9-42 10-38 44h38v23H63V0H32v-167H5v-23h27c-7-52 17-82 69-68v24" id="aq"/><g id="j"><use transform="matrix(0.05,0,0,0.05,0,0)" xlink:href="#ao"/><use transform="matrix(0.05,0,0,0.05,9,0)" xlink:href="#U"/><use transform="matrix(0.05,0,0,0.05,19,0)" xlink:href="#ap"/><use transform="matrix(0.05,0,0,0.05,29,0)" xlink:href="#aq"/><use transform="matrix(0.05,0,0,0.05,34,0)" xlink:href="#ah"/><use transform="matrix(0.05,0,0,0.05,37.95,0)" xlink:href="#ai"/></g><path d="M141 0L90-78 38 0H4l68-98-65-92h35l48 74 47-74h35l-64 92 68 98h-35" id="ar"/><g id="k"><use transform="matrix(0.05,0,0,0.05,0,0)" xlink:href="#ak"/><use transform="matrix(0.05,0,0,0.05,10,0)" xlink:href="#ap"/><use transform="matrix(0.05,0,0,0.05,20,0)" xlink:href="#ah"/><use transform="matrix(0.05,0,0,0.05,23.95,0)" xlink:href="#ar"/></g><path d="M115-194c55 1 70 41 70 98S169 2 115 4C84 4 66-9 55-30l1 105H24l-1-265h31l2 30c10-21 28-34 59-34zm-8 174c40 0 45-34 45-75s-6-73-45-74c-42 0-51 32-51 76 0 43 10 73 51 73" id="as"/><g id="l"><use transform="matrix(0.05,0,0,0.05,0,0)" xlink:href="#am"/><use transform="matrix(0.05,0,0,0.05,5.95,0)" xlink:href="#as"/><use transform="matrix(0.05,0,0,0.05,15.949999999999998,0)" xlink:href="#ao"/></g><g id="m"><use transform="matrix(0.05,0,0,0.05,0,0)" xlink:href="#ak"/><use transform="matrix(0.05,0,0,0.05,10,0)" xlink:href="#ap"/><use transform="matrix(0.05,0,0,0.05,20,0)" xlink:href="#ah"/><use transform="matrix(0.05,0,0,0.05,23.95,0)" xlink:href="#ar"/></g><g id="n"><use transform="matrix(0.05,0,0,0.05,0,0)" xlink:href="#am"/><use transform="matrix(0.05,0,0,0.05,5.95,0)" xlink:href="#as"/><use transform="matrix(0.05,0,0,0.05,15.949999999999998,0)" xlink:href="#ao"/></g><g id="o"><use transform="matrix(0.05,0,0,0.05,0,0)" xlink:href="#am"/><use transform="matrix(0.05,0,0,0.05,5.95,0)" xlink:href="#ak"/><use transform="matrix(0.05,0,0,0.05,15.949999999999998,0)" xlink:href="#ap"/><use transform="matrix(0.05,0,0,0.05,25.950000000000003,0)" xlink:href="#aj"/><use transform="matrix(0.05,0,0,0.05,30.950000000000003,0)" xlink:href="#ah"/><use transform="matrix(0.05,0,0,0.05,34.9,0)" xlink:href="#V"/><use transform="matrix(0.05,0,0,0.05,49.85,0)" xlink:href="#al"/></g><path d="M115-194c53 0 69 39 70 98 0 66-23 100-70 100C84 3 66-7 56-30L54 0H23l1-261h32v101c10-23 28-34 59-34zm-8 174c40 0 45-34 45-75 0-40-5-75-45-74-42 0-51 32-51 76 0 43 10 73 51 73" id="at"/><path d="M143 0L79-87 56-68V0H24v-261h32v163l83-92h37l-77 82L181 0h-38" id="au"/><path d="M85-194c31 0 48 13 60 33l-1-100h32l1 261h-30c-2-10 0-23-3-31C134-8 116 4 85 4 32 4 16-35 15-94c0-66 23-100 70-100zm9 24c-40 0-46 34-46 75 0 40 6 74 45 74 42 0 51-32 51-76 0-42-9-74-50-73" id="av"/><g id="p"><use transform="matrix(0.05,0,0,0.05,0,0)" xlink:href="#at"/><use transform="matrix(0.05,0,0,0.05,10,0)" xlink:href="#W"/><use transform="matrix(0.05,0,0,0.05,20,0)" xlink:href="#ao"/><use transform="matrix(0.05,0,0,0.05,29,0)" xlink:href="#au"/><use transform="matrix(0.05,0,0,0.05,38,0)" xlink:href="#al"/><use transform="matrix(0.05,0,0,0.05,48,0)" xlink:href="#ap"/><use transform="matrix(0.05,0,0,0.05,58,0)" xlink:href="#av"/></g><g id="q"><use transform="matrix(0.05,0,0,0.05,0,0)" xlink:href="#T"/><use transform="matrix(0.05,0,0,0.05,10,0)" xlink:href="#U"/><use transform="matrix(0.05,0,0,0.05,20,0)" xlink:href="#U"/><use transform="matrix(0.05,0,0,0.05,30,0)" xlink:href="#au"/></g><g id="r"><use transform="matrix(0.05,0,0,0.05,0,0)" xlink:href="#X"/><use transform="matrix(0.05,0,0,0.05,9,0)" xlink:href="#al"/><use transform="matrix(0.05,0,0,0.05,19,0)" xlink:href="#am"/><use transform="matrix(0.05,0,0,0.05,24.95,0)" xlink:href="#an"/><use transform="matrix(0.05,0,0,0.05,33.95,0)" xlink:href="#al"/><use transform="matrix(0.05,0,0,0.05,43.95,0)" xlink:href="#am"/></g><g id="s"><use transform="matrix(0.05,0,0,0.05,0,0)" xlink:href="#X"/><use transform="matrix(0.05,0,0,0.05,9,0)" xlink:href="#al"/><use transform="matrix(0.05,0,0,0.05,19,0)" xlink:href="#am"/><use transform="matrix(0.05,0,0,0.05,24.95,0)" xlink:href="#an"/><use transform="matrix(0.05,0,0,0.05,33.95,0)" xlink:href="#al"/><use transform="matrix(0.05,0,0,0.05,43.95,0)" xlink:href="#am"/></g><g id="t"><use transform="matrix(0.05,0,0,0.05,0,0)" xlink:href="#as"/><use transform="matrix(0.05,0,0,0.05,10,0)" xlink:href="#am"/><use transform="matrix(0.05,0,0,0.05,15.949999999999998,0)" xlink:href="#al"/><use transform="matrix(0.05,0,0,0.05,25.950000000000003,0)" xlink:href="#T"/><use transform="matrix(0.05,0,0,0.05,35.95,0)" xlink:href="#U"/><use transform="matrix(0.05,0,0,0.05,45.95,0)" xlink:href="#U"/><use transform="matrix(0.05,0,0,0.05,55.95,0)" xlink:href="#au"/></g><g id="u"><use transform="matrix(0.05,0,0,0.05,0,0)" xlink:href="#ao"/><use transform="matrix(0.05,0,0,0.05,9,0)" xlink:href="#T"/><use transform="matrix(0.05,0,0,0.05,19,0)" xlink:href="#W"/><use transform="matrix(0.05,0,0,0.05,29,0)" xlink:href="#ah"/><use transform="matrix(0.05,0,0,0.05,32.95,0)" xlink:href="#ap"/></g><path d="M205 0l-28-72H64L36 0H1l101-248h38L239 0h-34zm-38-99l-47-123c-12 45-31 82-46 123h93" id="aw"/><use transform="matrix(0.05,0,0,0.05,0,0)" xlink:href="#aw" id="v"/><path d="M160-131c35 5 61 23 61 61C221 17 115-2 30 0v-248c76 3 177-17 177 60 0 33-19 50-47 57zm-97-11c50-1 110 9 110-42 0-47-63-36-110-37v79zm0 115c55-2 124 14 124-45 0-56-70-42-124-44v89" id="ax"/><use transform="matrix(0.05,0,0,0.05,0,0)" xlink:href="#ax" id="w"/><path d="M212-179c-10-28-35-45-73-45-59 0-87 40-87 99 0 60 29 101 89 101 43 0 62-24 78-52l27 14C228-24 195 4 139 4 59 4 22-46 18-125c-6-104 99-153 187-111 19 9 31 26 39 46" id="ay"/><use transform="matrix(0.05,0,0,0.05,0,0)" xlink:href="#ay" id="x"/><g id="y"><use transform="matrix(0.05,0,0,0.05,0,0)" xlink:href="#ak"/><use transform="matrix(0.05,0,0,0.05,10,0)" xlink:href="#ap"/><use transform="matrix(0.05,0,0,0.05,20,0)" xlink:href="#ah"/><use transform="matrix(0.05,0,0,0.05,23.95,0)" xlink:href="#ar"/></g><g id="z"><use transform="matrix(0.05,0,0,0.05,0,0)" xlink:href="#am"/><use transform="matrix(0.05,0,0,0.05,5.95,0)" xlink:href="#as"/><use transform="matrix(0.05,0,0,0.05,15.949999999999998,0)" xlink:href="#ao"/></g><g id="A"><use transform="matrix(0.05,0,0,0.05,0,0)" xlink:href="#ak"/><use transform="matrix(0.05,0,0,0.05,10,0)" xlink:href="#ap"/><use transform="matrix(0.05,0,0,0.05,20,0)" xlink:href="#ah"/><use transform="matrix(0.05,0,0,0.05,23.95,0)" xlink:href="#ar"/></g><g id="B"><use transform="matrix(0.05,0,0,0.05,0,0)" xlink:href="#am"/><use transform="matrix(0.05,0,0,0.05,5.95,0)" xlink:href="#as"/><use transform="matrix(0.05,0,0,0.05,15.949999999999998,0)" xlink:href="#ao"/></g><g id="C"><use transform="matrix(0.05,0,0,0.05,0,0)" xlink:href="#T"/><use transform="matrix(0.05,0,0,0.05,10,0)" xlink:href="#U"/><use transform="matrix(0.05,0,0,0.05,20,0)" xlink:href="#U"/><use transform="matrix(0.05,0,0,0.05,30,0)" xlink:href="#au"/></g><g id="D"><use transform="matrix(0.05,0,0,0.05,0,0)" xlink:href="#X"/><use transform="matrix(0.05,0,0,0.05,9,0)" xlink:href="#al"/><use transform="matrix(0.05,0,0,0.05,19,0)" xlink:href="#am"/><use transform="matrix(0.05,0,0,0.05,24.95,0)" xlink:href="#an"/><use transform="matrix(0.05,0,0,0.05,33.95,0)" xlink:href="#al"/><use transform="matrix(0.05,0,0,0.05,43.95,0)" xlink:href="#am"/></g><g id="E"><use transform="matrix(0.05,0,0,0.05,0,0)" xlink:href="#X"/><use transform="matrix(0.05,0,0,0.05,9,0)" xlink:href="#al"/><use transform="matrix(0.05,0,0,0.05,19,0)" xlink:href="#am"/><use transform="matrix(0.05,0,0,0.05,24.95,0)" xlink:href="#an"/><use transform="matrix(0.05,0,0,0.05,33.95,0)" xlink:href="#al"/><use transform="matrix(0.05,0,0,0.05,43.95,0)" xlink:href="#am"/></g><g id="F"><use transform="matrix(0.05,0,0,0.05,0,0)" xlink:href="#as"/><use transform="matrix(0.05,0,0,0.05,10,0)" xlink:href="#U"/><use transform="matrix(0.05,0,0,0.05,20,0)" xlink:href="#X"/><use transform="matrix(0.05,0,0,0.05,29,0)" xlink:href="#aj"/><use transform="matrix(0.05,0,0,0.05,34,0)" xlink:href="#T"/><use transform="matrix(0.05,0,0,0.05,44,0)" xlink:href="#U"/><use transform="matrix(0.05,0,0,0.05,54,0)" xlink:href="#U"/><use transform="matrix(0.05,0,0,0.05,64,0)" xlink:href="#au"/></g></defs></g></svg>