<svg xmlns="http://www.w3.org/2000/svg" xmlns:xlink="http://www.w3.org/1999/xlink" xmlns:lucid="lucid" width="1260" height="1074.45"><g transform="translate(-220 -79.99999999999999)" lucid:page-tab-id="7ezayB~FQlW7"><path d="M0 0h1760v1360H0z" fill="#ffdf71"/><path d="M671.76 102c0-1.1.9-2 2-2h532.78c1.1 0 2 .9 2 2v38.15c0 1.1-.9 2-2 2H673.76c-1.1 0-2-.9-2-2z" stroke="#000" stroke-opacity="0" stroke-width="2" fill="#fff" fill-opacity="0"/><use xlink:href="#a" transform="matrix(1,0,0,1,675.7595767063939,103.99999999999999) translate(165.58499999999998 21.455)"/><use xlink:href="#b" transform="matrix(1,0,0,1,675.7595767063939,103.99999999999999) translate(267.235 21.455)"/><path d="M816.33 140.77h253.8M816.36 140.77h-1.03M1070.1 140.77h1.04" stroke="#333" stroke-width="2" fill="none"/><path d="M671.3 143.07c0-1.1.9-2 2-2h533.4c1.1 0 2 .9 2 2v16c0 1.1-.9 2-2 2H673.3c-1.1 0-2-.9-2-2z" stroke="#000" stroke-opacity="0" stroke-width="2" fill="#fff" fill-opacity="0"/><use xlink:href="#c" transform="matrix(1,0,0,1,675.3075907693171,145.0733333332169) translate(165.61 17.080000000000002)"/><use xlink:href="#d" transform="matrix(1,0,0,1,675.3075907693171,145.0733333332169) translate(245.51000000000002 17.080000000000002)"/><use xlink:href="#e" transform="matrix(1,0,0,1,675.3075907693171,145.0733333332169) translate(260.16 17.080000000000002)"/><use xlink:href="#f" transform="matrix(1,0,0,1,675.3075907693171,145.0733333332169) translate(301.01 17.080000000000002)"/><use xlink:href="#g" transform="matrix(1,0,0,1,675.3075907693171,145.0733333332169) translate(331.01 17.080000000000002)"/><path d="M548.77 282c0-1.1.9-2 2-2h829.8c1.1 0 2 .9 2 2v76c0 1.1-.9 2-2 2h-829.8c-1.1 0-2-.9-2-2z" fill="#b1d6f0"/><use xlink:href="#h" transform="matrix(1,0,0,1,553.7695257149136,285) translate(343.6 38.4625)"/><use xlink:href="#i" transform="matrix(1,0,0,1,553.7695257149136,285) translate(430.5 38.4625)"/><path d="M364.2 624c0 8.84-27.8 16-62.1 16s-62.1-7.16-62.1-16V496c0-8.84 27.8-16 62.1-16s62.1 7.16 62.1 16z" fill="#b1d6f0"/><path d="M364.2 496c0 8.84-27.8 16-62.1 16s-62.1-7.16-62.1-16" fill="none"/><use xlink:href="#j" transform="matrix(1,0,0,1,245,517) translate(33.525 62.3375)"/><path d="M302.1 479V322c0-1.1.9-2 2-2h226.17" stroke="#333" stroke-width="2" fill="none"/><path d="M303.1 480.04l-1-.04-1 .02v-1.05h2z" fill="#333"/><path d="M545.53 320l-14.26 4.64v-9.28z" stroke="#333" stroke-width="2" fill="#333"/><path d="M965.67 361v70.66c0 1.1.9 2 2 2h114.83c1.1 0 2 .9 2 2v53.16" stroke="#333" stroke-width="2" fill="none"/><path d="M966.67 361.03h-2V360h2z" fill="#333"/><path d="M1084.5 504.1l-4.63-14.28h9.27z" stroke="#333" stroke-width="2" fill="#333"/><path d="M1211.58 544.55h37c1.1 0 2 .9 2 2v84.22c0 1.1-.9 2-2 2H1086.5c-1.1 0-2 .9-2 2v19.5" stroke="#333" stroke-width="2" fill="none"/><path d="M1211.6 545.55h-1.02v-2h1.03z" fill="#333"/><path d="M1084.5 669.54l-4.63-14.27h9.27z" stroke="#333" stroke-width="2" fill="#333"/><path d="M750.2 711.94l-.84 1.98-1.98.82h-93.3v-2H747l.85-.35.36-.85V631h2zm189.72-166.4H751.38l-.84.36-.35.85v62.66h-2v-63.05l.8-1.98 2-.82H939.9zM955.18 544.55l-14.26 4.63v-9.27z" fill="#333"/><path d="M958.42 544.55l-18.5 6v-12zm-16.5 3.26l10.03-3.25-10.03-3.26zM653.1 718.38l-14.27-4.64 14.26-4.63z" fill="#333"/><path d="M654.1 719.76l-18.5-6.02 18.5-6zm-12.04-6.02L652.1 717v-6.5z" fill="#333"/><use xlink:href="#k" transform="matrix(1,0,0,1,717.7351964450704,609.4140867004021) translate(0.004999999999999005 14.4)"/><use xlink:href="#l" transform="matrix(1,0,0,1,717.7351964450704,609.4140867004021) translate(37.955 14.4)"/><path d="M881 1065.56l-.82 1.98-1.98.82H654.1v-2h223.7l.85-.35.35-.84v-84.12h2zm76.42-189.1H882.2l-.85.34-.35.85v81.8h-2v-82.2l.82-1.98 1.98-.82h75.62z" fill="#333"/><path d="M958.42 876.45h-1.03v-2h1.02zM653.1 1072l-14.27-4.64 14.26-4.63z" fill="#333"/><path d="M654.1 1073.37l-18.5-6 18.5-6.02zm-12.04-6l10.03 3.25v-6.52z" fill="#333"/><use xlink:href="#m" transform="matrix(1,0,0,1,848.55,959.4406523569901) translate(0 14.4)"/><use xlink:href="#n" transform="matrix(1,0,0,1,848.55,959.4406523569901) translate(37.95 14.4)"/><path d="M1282.87 985.34l1.98.82.82 1.98v53.36h-2v-52.96l-.35-.85-.85-.36h-28.87v-2zm-197.02-.35l.85.34h104v2h-104.4l-1.98-.82-.82-1.98v-70.86h2v70.46z" fill="#333"/><path d="M1085.5 913.7h-2v-1.02h2zM1284.67 1056.76l-4.63-14.26h9.27z" fill="#333"/><path d="M1284.67 1060l-6-18.5h12zm-3.26-16.5l3.27 10.03 3.26-10.03z" fill="#333"/><use xlink:href="#m" transform="matrix(1,0,0,1,1190.6950092943014,975.5394160584295) translate(0 14.4)"/><use xlink:href="#n" transform="matrix(1,0,0,1,1190.6950092943014,975.5394160584295) translate(37.95 14.4)"/><path d="M1109.34 1062c0-1.1.9-2 2-2H1458c1.1 0 2 .9 2 2v70.45c0 1.1-.9 2-2 2h-346.66c-1.1 0-2-.9-2-2z" fill="#b1d6f0"/><use xlink:href="#o" transform="matrix(1,0,0,1,1114.3405792967085,1065.0000000000296) translate(104.075 36.74375)"/><use xlink:href="#p" transform="matrix(1,0,0,1,1114.3405792967085,1065.0000000000296) translate(168.925 36.74375)"/><path d="M420 661.83c0-1.1.9-2 2-2h159.55c1.1 0 2 .9 2 2v38.26c0 1.1-.9 2-2 2H422c-1.1 0-2-.9-2-2z" fill="#b1d6f0"/><use xlink:href="#q" transform="matrix(1,0,0,1,424.9999999998761,664.8262074209102) translate(30.049999999999997 20.5875)"/><use xlink:href="#r" transform="matrix(1,0,0,1,424.9999999998761,664.8262074209102) translate(74.05 20.5875)"/><path d="M472.05 694.6c0-1.1.9-2 2-2H633.6c1.1 0 2 .9 2 2v38.28c0 1.1-.9 2-2 2H474.04c-1.1 0-2-.9-2-2z" fill="#b1d6f0"/><use xlink:href="#q" transform="matrix(1,0,0,1,477.0451386652792,697.6118569216887) translate(30.049999999999997 20.5875)"/><use xlink:href="#s" transform="matrix(1,0,0,1,477.0451386652792,697.6118569216887) translate(74.05 20.5875)"/><path d="M420 839.93c0-1.1.9-2 2-2h179.65c1.1 0 2 .9 2 2v41.03c0 1.1-.9 2-2 2H422c-1.1 0-2-.9-2-2z" fill="#b1d6f0"/><use xlink:href="#q" transform="matrix(1,0,0,1,424.99999999987904,842.9272839139463) translate(40.05 21.15)"/><use xlink:href="#s" transform="matrix(1,0,0,1,424.99999999987904,842.9272839139463) translate(84.05 21.15)"/><path d="M451.94 869.95c0-1.1.9-2 2-2H633.6c1.1 0 2 .9 2 2v41.03c0 1.1-.9 2-2 2H453.93c-1.1 0-2-.9-2-2z" fill="#b1d6f0"/><use xlink:href="#q" transform="matrix(1,0,0,1,456.94226745776643,872.9475005784574) translate(40.05 21.15)"/><use xlink:href="#s" transform="matrix(1,0,0,1,456.94226745776643,872.9475005784574) translate(84.05 21.15)"/><path d="M420 1018.03c0-1.1.9-2 2-2h182c1.1 0 2 .9 2 2v43.43c0 1.1-.9 2-2 2H422c-1.1 0-2-.9-2-2z" fill="#b1d6f0"/><use xlink:href="#q" transform="matrix(1,0,0,1,424.9999999998996,1021.0283604068463) translate(41.05 21.525)"/><use xlink:href="#s" transform="matrix(1,0,0,1,424.9999999998996,1021.0283604068463) translate(85.05 21.525)"/><path d="M449.6 1045.65c0-1.1.9-2 2-2h182c1.1 0 2 .9 2 2v43.43c0 1.1-.9 2-2 2h-182c-1.1 0-2-.9-2-2z" fill="#b1d6f0"/><use xlink:href="#q" transform="matrix(1,0,0,1,454.59475226762106,1048.646498201461) translate(41.05 21.525)"/><use xlink:href="#s" transform="matrix(1,0,0,1,454.59475226762106,1048.646498201461) translate(85.05 21.525)"/><path d="M1211.58 710h37c1.1 0 2 .9 2 2v84.23c0 1.1-.9 2-2 2H1086.5c-1.1 0-2 .9-2 2v19.5" stroke="#333" stroke-width="2" fill="none"/><path d="M1211.6 711h-1.02v-2h1.03z" fill="#333"/><path d="M1084.5 835l-4.63-14.28h9.27z" stroke="#333" stroke-width="2" fill="#333"/><path d="M958.42 509.32c0-1.1.9-2 2-2h248.16c1.1 0 2 .9 2 2v70.45c0 1.1-.9 2-2 2H960.42c-1.1 0-2-.9-2-2z" fill="#b1d6f0"/><path d="M983.64 507.32v74.45m201.73-74.45v74.45" fill="none"/><g><use xlink:href="#q" transform="matrix(1,0,0,1,994.9405400378005,512.3211678832) translate(38.025 36.1)"/><use xlink:href="#t" transform="matrix(1,0,0,1,994.9405400378005,512.3211678832) translate(82.025 36.1)"/><use xlink:href="#u" transform="matrix(1,0,0,1,994.9405400378005,512.3211678832) translate(129.975 36.1)"/></g><path d="M958.42 674.77c0-1.1.9-2 2-2h248.16c1.1 0 2 .9 2 2v70.46c0 1.1-.9 2-2 2H960.42c-1.1 0-2-.9-2-2z" fill="#b1d6f0"/><path d="M983.64 672.77v74.46m201.73-74.46v74.46" fill="none"/><g><use xlink:href="#q" transform="matrix(1,0,0,1,994.9405400378005,677.7737226277519) translate(38.025 36.1)"/><use xlink:href="#t" transform="matrix(1,0,0,1,994.9405400378005,677.7737226277519) translate(82.025 36.1)"/><use xlink:href="#v" transform="matrix(1,0,0,1,994.9405400378005,677.7737226277519) translate(129.975 36.1)"/></g><path d="M958.42 840.23c0-1.1.9-2 2-2h248.16c1.1 0 2 .9 2 2v70.45c0 1.1-.9 2-2 2H960.42c-1.1 0-2-.9-2-2z" fill="#b1d6f0"/><path d="M983.64 838.23v74.45m201.73-74.45v74.45" fill="none"/><g><use xlink:href="#q" transform="matrix(1,0,0,1,994.9405400378005,843.2262773723038) translate(37.55 36.1)"/><use xlink:href="#t" transform="matrix(1,0,0,1,994.9405400378005,843.2262773723038) translate(81.55 36.1)"/><use xlink:href="#w" transform="matrix(1,0,0,1,994.9405400378005,843.2262773723038) translate(129.5 36.1)"/></g><path d="M831 888.66l-.82 1.98-1.98.82H654.1v-2h173.7l.85-.35.35-.84V804.3h2zM957.42 711H832.2l-.85.35-.35.85v70.5h-2v-70.9l.82-1.98 1.98-.82h125.62z" fill="#333"/><path d="M958.42 711h-1.03v-2h1.02zM653.1 895.1l-14.27-4.64 14.26-4.63z" fill="#333"/><path d="M654.1 896.47l-18.5-6 18.5-6.02zm-12.04-6l10.03 3.25v-6.52z" fill="#333"/><g><use xlink:href="#m" transform="matrix(1,0,0,1,798.55,782.7115530303795) translate(0 14.4)"/><use xlink:href="#n" transform="matrix(1,0,0,1,798.55,782.7115530303795) translate(37.95 14.4)"/></g><defs><path d="M24 0v-248h52v208h133V0H24" id="x"/><path d="M25-224v-37h50v37H25zM25 0v-190h50V0H25" id="y"/><path d="M195-6C206 82 75 100 31 46c-4-6-6-13-8-21l49-6c3 16 16 24 34 25 40 0 42-37 40-79-11 22-30 35-61 35-53 0-70-43-70-97 0-56 18-96 73-97 30 0 46 14 59 34l2-30h47zm-90-29c32 0 41-27 41-63 0-35-9-62-40-62-32 0-39 29-40 63 0 36 9 62 39 62" id="z"/><path d="M114-157C55-157 80-60 75 0H25v-261h50l-1 109c12-26 28-41 61-42 86-1 58 113 63 194h-50c-7-57 23-157-34-157" id="A"/><path d="M115-3C79 11 28 4 28-45v-112H4v-33h27l15-45h31v45h36v33H77v99c-1 23 16 31 38 25v30" id="B"/><path d="M110-194c64 0 96 36 96 99 0 64-35 99-97 99-61 0-95-36-95-99 0-62 34-99 96-99zm-1 164c35 0 45-28 45-65 0-40-10-65-43-65-34 0-45 26-45 65 0 36 10 65 43 65" id="C"/><path d="M85 4C-2 5 27-109 22-190h50c7 57-23 150 33 157 60-5 35-97 40-157h50l1 190h-47c-2-12 1-28-3-38-12 25-28 42-61 42" id="D"/><path d="M137-138c1-29-70-34-71-4 15 46 118 7 119 86 1 83-164 76-172 9l43-7c4 19 20 25 44 25 33 8 57-30 24-41C81-84 22-81 20-136c-2-80 154-74 161-7" id="E"/><path d="M185-48c-13 30-37 53-82 52C43 2 14-33 14-96s30-98 90-98c62 0 83 45 84 108H66c0 31 8 55 39 56 18 0 30-7 34-22zm-45-69c5-46-57-63-70-21-2 6-4 13-4 21h74" id="F"/><g id="a"><use transform="matrix(0.05,0,0,0.05,0,0)" xlink:href="#x"/><use transform="matrix(0.05,0,0,0.05,10.950000000000001,0)" xlink:href="#y"/><use transform="matrix(0.05,0,0,0.05,15.950000000000001,0)" xlink:href="#z"/><use transform="matrix(0.05,0,0,0.05,26.900000000000002,0)" xlink:href="#A"/><use transform="matrix(0.05,0,0,0.05,37.85,0)" xlink:href="#B"/><use transform="matrix(0.05,0,0,0.05,43.800000000000004,0)" xlink:href="#A"/><use transform="matrix(0.05,0,0,0.05,54.75,0)" xlink:href="#C"/><use transform="matrix(0.05,0,0,0.05,65.7,0)" xlink:href="#D"/><use transform="matrix(0.05,0,0,0.05,76.65,0)" xlink:href="#E"/><use transform="matrix(0.05,0,0,0.05,86.65,0)" xlink:href="#F"/></g><path d="M133-34C117-15 103 5 69 4 32 3 11-16 11-54c-1-60 55-63 116-61 1-26-3-47-28-47-18 1-26 9-28 27l-52-2c7-38 36-58 82-57s74 22 75 68l1 82c-1 14 12 18 25 15v27c-30 8-71 5-69-32zm-48 3c29 0 43-24 42-57-32 0-66-3-65 30 0 17 8 27 23 27" id="G"/><path d="M135-150c-39-12-60 13-60 57V0H25l-1-190h47c2 13-1 29 3 40 6-28 27-53 61-41v41" id="H"/><path d="M190-63c-7 42-38 67-86 67-59 0-84-38-90-98-12-110 154-137 174-36l-49 2c-2-19-15-32-35-32-30 0-35 28-38 64-6 74 65 87 74 30" id="I"/><g id="b"><use transform="matrix(0.05,0,0,0.05,0,0)" xlink:href="#G"/><use transform="matrix(0.05,0,0,0.05,10,0)" xlink:href="#H"/><use transform="matrix(0.05,0,0,0.05,17,0)" xlink:href="#I"/><use transform="matrix(0.05,0,0,0.05,27,0)" xlink:href="#A"/><use transform="matrix(0.05,0,0,0.05,37.95,0)" xlink:href="#y"/><use transform="matrix(0.05,0,0,0.05,42.95,0)" xlink:href="#B"/><use transform="matrix(0.05,0,0,0.05,48.900000000000006,0)" xlink:href="#F"/><use transform="matrix(0.05,0,0,0.05,58.900000000000006,0)" xlink:href="#I"/><use transform="matrix(0.05,0,0,0.05,68.9,0)" xlink:href="#B"/><use transform="matrix(0.05,0,0,0.05,74.85000000000001,0)" xlink:href="#D"/><use transform="matrix(0.05,0,0,0.05,85.80000000000001,0)" xlink:href="#H"/><use transform="matrix(0.05,0,0,0.05,92.80000000000001,0)" xlink:href="#F"/></g><path d="M127-220V0H93v-220H8v-28h204v28h-85" id="J"/><path d="M106-169C34-169 62-67 57 0H25v-261h32l-1 103c12-21 28-36 61-36 89 0 53 116 60 194h-32v-121c2-32-8-49-39-48" id="K"/><path d="M100-194c62-1 85 37 85 99 1 63-27 99-86 99S16-35 15-95c0-66 28-99 85-99zM99-20c44 1 53-31 53-75 0-43-8-75-51-75s-53 32-53 75 10 74 51 75" id="L"/><path d="M210-169c-67 3-38 105-44 169h-31v-121c0-29-5-50-35-48C34-165 62-65 56 0H25l-1-190h30c1 10-1 24 2 32 10-44 99-50 107 0 11-21 27-35 58-36 85-2 47 119 55 194h-31v-121c0-29-5-49-35-48" id="M"/><path d="M141-36C126-15 110 5 73 4 37 3 15-17 15-53c-1-64 63-63 125-63 3-35-9-54-41-54-24 1-41 7-42 31l-33-3c5-37 33-52 76-52 45 0 72 20 72 64v82c-1 20 7 32 28 27v20c-31 9-61-2-59-35zM48-53c0 20 12 33 32 33 41-3 63-29 60-74-43 2-92-5-92 41" id="N"/><path d="M135-143c-3-34-86-38-87 0 15 53 115 12 119 90S17 21 10-45l28-5c4 36 97 45 98 0-10-56-113-15-118-90-4-57 82-63 122-42 12 7 21 19 24 35" id="O"/><g id="c"><use transform="matrix(0.05,0,0,0.05,0,0)" xlink:href="#J"/><use transform="matrix(0.05,0,0,0.05,10.950000000000001,0)" xlink:href="#K"/><use transform="matrix(0.05,0,0,0.05,20.950000000000003,0)" xlink:href="#L"/><use transform="matrix(0.05,0,0,0.05,30.950000000000003,0)" xlink:href="#M"/><use transform="matrix(0.05,0,0,0.05,45.900000000000006,0)" xlink:href="#N"/><use transform="matrix(0.05,0,0,0.05,55.900000000000006,0)" xlink:href="#O"/></g><path d="M32 76v-337h29V76H32" id="P"/><use transform="matrix(0.05,0,0,0.05,0,0)" xlink:href="#P" id="d"/><path d="M205 0l-28-72H64L36 0H1l101-248h38L239 0h-34zm-38-99l-47-123c-12 45-31 82-46 123h93" id="Q"/><path d="M115-194c55 1 70 41 70 98S169 2 115 4C84 4 66-9 55-30l1 105H24l-1-265h31l2 30c10-21 28-34 59-34zm-8 174c40 0 45-34 45-75s-6-73-45-74c-42 0-51 32-51 76 0 43 10 73 51 73" id="R"/><path d="M114-163C36-179 61-72 57 0H25l-1-190h30c1 12-1 29 2 39 6-27 23-49 58-41v29" id="S"/><path d="M24-231v-30h32v30H24zM24 0v-190h32V0H24" id="T"/><path d="M24 0v-261h32V0H24" id="U"/><g id="e"><use transform="matrix(0.05,0,0,0.05,0,0)" xlink:href="#Q"/><use transform="matrix(0.05,0,0,0.05,12,0)" xlink:href="#R"/><use transform="matrix(0.05,0,0,0.05,22,0)" xlink:href="#S"/><use transform="matrix(0.05,0,0,0.05,27.950000000000003,0)" xlink:href="#T"/><use transform="matrix(0.05,0,0,0.05,31.899999999999995,0)" xlink:href="#U"/></g><path d="M101-251c82-7 93 87 43 132L82-64C71-53 59-42 53-27h129V0H18c2-99 128-94 128-182 0-28-16-43-45-43s-46 15-49 41l-32-3c6-41 34-60 81-64" id="V"/><path d="M134-131c28 9 52 24 51 62-1 50-34 73-85 73S17-19 16-69c0-36 21-54 49-61-75-25-45-126 34-121 46 3 78 18 79 63 0 33-17 51-44 57zm-34-11c31 1 46-15 46-44 0-28-17-43-47-42-29 0-46 13-45 42 1 28 16 44 46 44zm1 122c35 0 51-18 51-52 0-30-18-46-53-46-33 0-51 17-51 47 0 34 19 51 53 51" id="W"/><path d="M68-38c1 34 0 65-14 84H32c9-13 17-26 17-46H33v-38h35" id="X"/><g id="f"><use transform="matrix(0.05,0,0,0.05,0,0)" xlink:href="#V"/><use transform="matrix(0.05,0,0,0.05,10,0)" xlink:href="#W"/><use transform="matrix(0.05,0,0,0.05,20,0)" xlink:href="#X"/></g><path d="M101-251c68 0 85 55 85 127S166 4 100 4C33 4 14-52 14-124c0-73 17-127 87-127zm-1 229c47 0 54-49 54-102s-4-102-53-102c-51 0-55 48-55 102 0 53 5 102 54 102" id="Y"/><g id="g"><use transform="matrix(0.05,0,0,0.05,0,0)" xlink:href="#V"/><use transform="matrix(0.05,0,0,0.05,10,0)" xlink:href="#Y"/><use transform="matrix(0.05,0,0,0.05,20,0)" xlink:href="#V"/><use transform="matrix(0.05,0,0,0.05,30,0)" xlink:href="#Y"/></g><path d="M177-190C167-65 218 103 67 71c-23-6-38-20-44-43l32-5c15 47 100 32 89-28v-30C133-14 115 1 83 1 29 1 15-40 15-95c0-56 16-97 71-98 29-1 48 16 59 35 1-10 0-23 2-32h30zM94-22c36 0 50-32 50-73 0-42-14-75-50-75-39 0-46 34-46 75s6 73 46 73" id="Z"/><path d="M59-47c-2 24 18 29 38 22v24C64 9 27 4 27-40v-127H5v-23h24l9-43h21v43h35v23H59v120" id="aa"/><path d="M84 4C-5 8 30-112 23-190h32v120c0 31 7 50 39 49 72-2 45-101 50-169h31l1 190h-30c-1-10 1-25-2-33-11 22-28 36-60 37" id="ab"/><path d="M100-194c63 0 86 42 84 106H49c0 40 14 67 53 68 26 1 43-12 49-29l28 8c-11 28-37 45-77 45C44 4 14-33 15-96c1-61 26-98 85-98zm52 81c6-60-76-77-97-28-3 7-6 17-6 28h103" id="ac"/><g id="h"><use transform="matrix(0.05,0,0,0.05,0,0)" xlink:href="#U"/><use transform="matrix(0.05,0,0,0.05,3.95,0)" xlink:href="#T"/><use transform="matrix(0.05,0,0,0.05,7.9,0)" xlink:href="#Z"/><use transform="matrix(0.05,0,0,0.05,17.9,0)" xlink:href="#K"/><use transform="matrix(0.05,0,0,0.05,27.899999999999995,0)" xlink:href="#aa"/><use transform="matrix(0.05,0,0,0.05,32.9,0)" xlink:href="#K"/><use transform="matrix(0.05,0,0,0.05,42.9,0)" xlink:href="#L"/><use transform="matrix(0.05,0,0,0.05,52.900000000000006,0)" xlink:href="#ab"/><use transform="matrix(0.05,0,0,0.05,62.900000000000006,0)" xlink:href="#O"/><use transform="matrix(0.05,0,0,0.05,71.9,0)" xlink:href="#ac"/></g><path d="M108 0H70L1-190h34L89-25l56-165h34" id="ad"/><g id="i"><use transform="matrix(0.05,0,0,0.05,0,0)" xlink:href="#O"/><use transform="matrix(0.05,0,0,0.05,9,0)" xlink:href="#ac"/><use transform="matrix(0.05,0,0,0.05,19,0)" xlink:href="#S"/><use transform="matrix(0.05,0,0,0.05,24.95,0)" xlink:href="#ad"/><use transform="matrix(0.05,0,0,0.05,33.95,0)" xlink:href="#ac"/><use transform="matrix(0.05,0,0,0.05,43.95,0)" xlink:href="#S"/></g><path d="M96-169c-40 0-48 33-48 73s9 75 48 75c24 0 41-14 43-38l32 2c-6 37-31 61-74 61-59 0-76-41-82-99-10-93 101-131 147-64 4 7 5 14 7 22l-32 3c-4-21-16-35-41-35" id="ae"/><path d="M117-194c89-4 53 116 60 194h-32v-121c0-31-8-49-39-48C34-167 62-67 57 0H25l-1-190h30c1 10-1 24 2 32 11-22 29-35 61-36" id="af"/><path d="M101-234c-31-9-42 10-38 44h38v23H63V0H32v-167H5v-23h27c-7-52 17-82 69-68v24" id="ag"/><g id="j"><use transform="matrix(0.05,0,0,0.05,0,0)" xlink:href="#ae"/><use transform="matrix(0.05,0,0,0.05,9,0)" xlink:href="#L"/><use transform="matrix(0.05,0,0,0.05,19,0)" xlink:href="#af"/><use transform="matrix(0.05,0,0,0.05,29,0)" xlink:href="#ag"/><use transform="matrix(0.05,0,0,0.05,34,0)" xlink:href="#T"/><use transform="matrix(0.05,0,0,0.05,37.95,0)" xlink:href="#Z"/></g><path d="M141 0L90-78 38 0H4l68-98-65-92h35l48 74 47-74h35l-64 92 68 98h-35" id="ah"/><g id="k"><use transform="matrix(0.05,0,0,0.05,0,0)" xlink:href="#ab"/><use transform="matrix(0.05,0,0,0.05,10,0)" xlink:href="#af"/><use transform="matrix(0.05,0,0,0.05,20,0)" xlink:href="#T"/><use transform="matrix(0.05,0,0,0.05,23.95,0)" xlink:href="#ah"/></g><g id="l"><use transform="matrix(0.05,0,0,0.05,0,0)" xlink:href="#S"/><use transform="matrix(0.05,0,0,0.05,5.95,0)" xlink:href="#R"/><use transform="matrix(0.05,0,0,0.05,15.949999999999998,0)" xlink:href="#ae"/></g><g id="m"><use transform="matrix(0.05,0,0,0.05,0,0)" xlink:href="#ab"/><use transform="matrix(0.05,0,0,0.05,10,0)" xlink:href="#af"/><use transform="matrix(0.05,0,0,0.05,20,0)" xlink:href="#T"/><use transform="matrix(0.05,0,0,0.05,23.95,0)" xlink:href="#ah"/></g><g id="n"><use transform="matrix(0.05,0,0,0.05,0,0)" xlink:href="#S"/><use transform="matrix(0.05,0,0,0.05,5.95,0)" xlink:href="#R"/><use transform="matrix(0.05,0,0,0.05,15.949999999999998,0)" xlink:href="#ae"/></g><g id="o"><use transform="matrix(0.05,0,0,0.05,0,0)" xlink:href="#S"/><use transform="matrix(0.05,0,0,0.05,5.95,0)" xlink:href="#ab"/><use transform="matrix(0.05,0,0,0.05,15.949999999999998,0)" xlink:href="#af"/><use transform="matrix(0.05,0,0,0.05,25.950000000000003,0)" xlink:href="#aa"/><use transform="matrix(0.05,0,0,0.05,30.950000000000003,0)" xlink:href="#T"/><use transform="matrix(0.05,0,0,0.05,34.9,0)" xlink:href="#M"/><use transform="matrix(0.05,0,0,0.05,49.85,0)" xlink:href="#ac"/></g><path d="M115-194c53 0 69 39 70 98 0 66-23 100-70 100C84 3 66-7 56-30L54 0H23l1-261h32v101c10-23 28-34 59-34zm-8 174c40 0 45-34 45-75 0-40-5-75-45-74-42 0-51 32-51 76 0 43 10 73 51 73" id="ai"/><path d="M143 0L79-87 56-68V0H24v-261h32v163l83-92h37l-77 82L181 0h-38" id="aj"/><path d="M85-194c31 0 48 13 60 33l-1-100h32l1 261h-30c-2-10 0-23-3-31C134-8 116 4 85 4 32 4 16-35 15-94c0-66 23-100 70-100zm9 24c-40 0-46 34-46 75 0 40 6 74 45 74 42 0 51-32 51-76 0-42-9-74-50-73" id="ak"/><g id="p"><use transform="matrix(0.05,0,0,0.05,0,0)" xlink:href="#ai"/><use transform="matrix(0.05,0,0,0.05,10,0)" xlink:href="#N"/><use transform="matrix(0.05,0,0,0.05,20,0)" xlink:href="#ae"/><use transform="matrix(0.05,0,0,0.05,29,0)" xlink:href="#aj"/><use transform="matrix(0.05,0,0,0.05,38,0)" xlink:href="#ac"/><use transform="matrix(0.05,0,0,0.05,48,0)" xlink:href="#af"/><use transform="matrix(0.05,0,0,0.05,58,0)" xlink:href="#ak"/></g><g id="q"><use transform="matrix(0.05,0,0,0.05,0,0)" xlink:href="#K"/><use transform="matrix(0.05,0,0,0.05,10,0)" xlink:href="#L"/><use transform="matrix(0.05,0,0,0.05,20,0)" xlink:href="#L"/><use transform="matrix(0.05,0,0,0.05,30,0)" xlink:href="#aj"/></g><g id="r"><use transform="matrix(0.05,0,0,0.05,0,0)" xlink:href="#O"/><use transform="matrix(0.05,0,0,0.05,9,0)" xlink:href="#ac"/><use transform="matrix(0.05,0,0,0.05,19,0)" xlink:href="#S"/><use transform="matrix(0.05,0,0,0.05,24.95,0)" xlink:href="#ad"/><use transform="matrix(0.05,0,0,0.05,33.95,0)" xlink:href="#ac"/><use transform="matrix(0.05,0,0,0.05,43.95,0)" xlink:href="#S"/></g><g id="s"><use transform="matrix(0.05,0,0,0.05,0,0)" xlink:href="#O"/><use transform="matrix(0.05,0,0,0.05,9,0)" xlink:href="#ac"/><use transform="matrix(0.05,0,0,0.05,19,0)" xlink:href="#S"/><use transform="matrix(0.05,0,0,0.05,24.95,0)" xlink:href="#ad"/><use transform="matrix(0.05,0,0,0.05,33.95,0)" xlink:href="#ac"/><use transform="matrix(0.05,0,0,0.05,43.95,0)" xlink:href="#S"/></g><g id="t"><use transform="matrix(0.05,0,0,0.05,0,0)" xlink:href="#ae"/><use transform="matrix(0.05,0,0,0.05,9,0)" xlink:href="#K"/><use transform="matrix(0.05,0,0,0.05,19,0)" xlink:href="#N"/><use transform="matrix(0.05,0,0,0.05,29,0)" xlink:href="#T"/><use transform="matrix(0.05,0,0,0.05,32.95,0)" xlink:href="#af"/></g><use transform="matrix(0.05,0,0,0.05,0,0)" xlink:href="#Q" id="u"/><path d="M160-131c35 5 61 23 61 61C221 17 115-2 30 0v-248c76 3 177-17 177 60 0 33-19 50-47 57zm-97-11c50-1 110 9 110-42 0-47-63-36-110-37v79zm0 115c55-2 124 14 124-45 0-56-70-42-124-44v89" id="al"/><use transform="matrix(0.05,0,0,0.05,0,0)" xlink:href="#al" id="v"/><path d="M212-179c-10-28-35-45-73-45-59 0-87 40-87 99 0 60 29 101 89 101 43 0 62-24 78-52l27 14C228-24 195 4 139 4 59 4 22-46 18-125c-6-104 99-153 187-111 19 9 31 26 39 46" id="am"/><use transform="matrix(0.05,0,0,0.05,0,0)" xlink:href="#am" id="w"/></defs></g></svg>